<?xml version="1.0" encoding="UTF-8" standalone="no"?>
<svg width="456" height="456" viewBox="0 0 456 456" version="1.1" xmlns="http://www.w3.org/2000/svg">
    <g fill="none" stroke="#2563EB" stroke-width="18" stroke-linecap="round" stroke-linejoin="round">
        <!-- Cart Handle and Rim -->
        <path d="M 130 140 L 155 140 L 185 260 H 310 L 335 170 H 162" />
        
        <!-- Cart Bottom Platform Loop -->
        <path d="M 185 260 C 160 260 160 295 185 295 H 280" />
        
        <!-- Cart Heart Icon -->
        <path d="M 235 240 C 235 240 180 195 180 170 C 180 152 195 140 212 140 C 223 140 231 146 235 153 C 239 146 247 140 258 140 C 275 140 290 152 290 170 C 290 195 235 240 235 240 Z" />
        
        <!-- Left Wheel -->
        <circle cx="205" cy="330" r="14" stroke-width="16" />
        
        <!-- Right Wheel Map Pin -->
        <path d="M 275 300 C 262 300 252 312 252 325 C 252 342 275 365 275 365 C 275 365 298 342 298 325 C 298 312 288 300 275 300 Z" stroke-width="14" />
        <circle cx="275" cy="324" r="4" fill="#2563EB" stroke-width="2" />
    </g>
</svg>